# xmcd
#
# Track frame offsets:
#        150
#        10087
#        20957
#        32640
#        43940
#        54022
#        66482
#        76812
#        87662
#        99337
#        110470
#        120780
#        131855
#        141365
#        153522
#        163642
#        174167
#        184887
#        195700
#        209122
#
# Disc length: 2902 seconds
#
# Revision: 0
# Processed by: cddbd v1.5.1PL2 Copyright (c) Steve Scherf et al.
# Submitted via: ExactAudioCopy v0.95a5
#
DISCID=170b5414
DTITLE=Smiley Lewis - I Hear You Knocking (Disc-3) New Orleans Gumbo
DYEAR=1900
DGENRE=Blues
TTITLE0=Jailbird
TTITLE1=Farewell
TTITLE2=Real Gone Lover
TTITLE3=Bumpity Bump
TTITLE4=I Can't Believe It
TTITLE5=I Hear You Knocking
TTITLE6=Hey Girl
TTITLE7=Come On
TTITLE8=Queen Of Hearts
TTITLE9=One Night
TTITLE10=Nothing But The Blues
TTITLE11=She's Got Me Hook, Line and Sinker
TTITLE12=Baby Please
TTITLE13=By The Water
TTITLE14=Rootin' And Tootin'
TTITLE15=Please Listen To Me
TTITLE16=No No
TTITLE17=Someday You'll Want Me
TTITLE18=Down Yonder We Go Ballin'
TTITLE19=No Letter Today
EXTD=
EXTT0=
EXTT1=
EXTT2=
EXTT3=
EXTT4=
EXTT5=
EXTT6=
EXTT7=
EXTT8=
EXTT9=
EXTT10=
EXTT11=
EXTT12=
EXTT13=
EXTT14=
EXTT15=
EXTT16=
EXTT17=
EXTT18=
EXTT19=
PLAYORDER=
